<svg xmlns="http://www.w3.org/2000/svg" width="50" height="50">
    <path style="fill:none;fill-rule:evenodd;stroke:#fff;stroke-width:1.95092;stroke-miterlimit:4;stroke-dasharray:none" d="M.975.975h48.049v48.049H.975z"/>
    <g aria-label="Pb" style="font-style:normal;font-weight:400;font-size:100px;line-height:1.25;font-family:sans-serif;fill:#fff;fill-opacity:1;stroke:none">
        <path d="M97.24 87.695q0 4.883-1.71 9.57-1.709 4.64-4.883 7.813-4.345 4.297-9.716 6.494-5.323 2.198-13.282 2.198H55.98v23.681H37.23V64.746h30.86q6.933 0 11.67 1.22 4.785 1.173 8.447 3.565 4.395 2.881 6.69 7.373 2.343 4.492 2.343 10.791zm-19.386.44q0-3.076-1.66-5.274-1.66-2.246-3.857-3.125-2.93-1.172-5.713-1.27-2.783-.146-7.422-.146H55.98v21.778h5.372q4.785 0 7.86-.586 3.126-.586 5.226-2.344 1.806-1.563 2.587-3.711.83-2.197.83-5.322zM166.77 109.277q0 12.94-7.177 21.094-7.13 8.154-17.822 8.154-4.59 0-8.057-.976-3.467-.977-6.592-2.832l-.732 2.734h-16.846V61.475h17.578V88.33q4.053-3.223 8.252-5.225 4.248-2.001 9.766-2.001 10.4 0 16.015 7.519 5.616 7.47 5.616 20.654zm-18.115.342q0-7.324-2.49-11.28-2.49-3.954-8.887-3.954-2.49 0-5.127.781-2.636.732-5.029 2.148v27.54q1.904.683 3.613.927 1.71.244 4.102.244 6.982 0 10.4-4.101 3.418-4.102 3.418-12.305z" style="font-weight:700;font-size:100px;fill:#fff" transform="scale(.25)"/>
    </g>
    <g aria-label="87" style="font-style:normal;font-weight:400;font-size:29.3333px;line-height:1.25;font-family:sans-serif;fill:#fff;fill-opacity:1;stroke:none">
        <path d="M33.569 34.967q0 2.764-2.163 4.598-2.149 1.833-5.414 1.833-3.466 0-5.529-1.79-2.048-1.79-2.048-4.584 0-1.776 1.031-3.208 1.031-1.446 2.908-2.292v-.085q-1.719-.917-2.55-2.006-.816-1.088-.816-2.721 0-2.406 1.976-4.01 1.977-1.605 5.028-1.605 3.194 0 5.099 1.533 1.905 1.532 1.905 3.896 0 1.446-.903 2.85-.902 1.39-2.65 2.177v.086q2.006.86 3.066 2.12 1.06 1.26 1.06 3.208zm-3.395-10.413q0-1.532-1.189-2.434-1.174-.917-3.008-.917-1.804 0-2.964.86-1.146.859-1.146 2.32 0 1.03.573 1.79.587.745 1.761 1.332.53.258 1.519.673 1.002.415 1.948.688 1.417-.946 1.962-1.963.544-1.017.544-2.349zm.444 10.685q0-1.317-.587-2.105-.573-.802-2.263-1.604-.673-.315-1.475-.588-.803-.272-2.135-.759-1.289.702-2.076 1.905-.774 1.203-.774 2.722 0 1.933 1.332 3.194 1.332 1.26 3.38 1.26 2.092 0 3.338-1.074 1.26-1.074 1.26-2.95zM52.117 22.778l-9.654 18.133h-3.065l10.27-18.82H37.521v-2.507h14.595z" style="font-size:29.3333px;fill:#fff" transform="scale(.25)"/>
    </g>
</svg>
